<svg width="280" height="280" viewBox="0 0 280 280" fill="none" xmlns="http://www.w3.org/2000/svg"><circle cx="140" cy="140" r="135" stroke="#8B4513" stroke-width="3" fill="#f5f5f0"/><circle cx="140" cy="140" r="120" stroke="#D4AF37" stroke-width="1.5" fill="none"/><g transform="translate(140, 60)"><ellipse cx="0" cy="0" rx="6" ry="10" fill="#D4AF37" transform="rotate(20)"/><path d="M -2 -3 Q 0 0, -2 3" stroke="#f5f5f0" stroke-width="1.5" stroke-linecap="round" fill="none"/></g><g transform="translate(220, 140)"><ellipse cx="0" cy="0" rx="6" ry="10" fill="#D4AF37" transform="rotate(110)"/><path d="M -2 -3 Q 0 0, -2 3" stroke="#f5f5f0" stroke-width="1.5" stroke-linecap="round" fill="none" transform="rotate(110)"/></g><g transform="translate(60, 140)"><ellipse cx="0" cy="0" rx="6" ry="10" fill="#D4AF37" transform="rotate(-110)"/><path d="M -2 -3 Q 0 0, -2 3" stroke="#f5f5f0" stroke-width="1.5" stroke-linecap="round" fill="none" transform="rotate(-110)"/></g><text x="140" y="125" font-family="system-ui, -apple-system, sans-serif" font-size="24" font-weight="500" fill="#8B4513" text-anchor="middle" letter-spacing="-0.5">moorabbin</text><text x="140" y="150" font-family="system-ui, -apple-system, sans-serif" font-size="28" font-weight="600" fill="#8B4513" text-anchor="middle" letter-spacing="1">COFFEE</text><text x="140" y="172" font-family="system-ui, -apple-system, sans-serif" font-size="20" font-weight="400" fill="#D4AF37" text-anchor="middle" letter-spacing="3">CO</text><line x1="80" y1="185" x2="200" y2="185" stroke="#D4AF37" stroke-width="1"/><line x1="90" y1="193" x2="190" y2="193" stroke="#D4AF37" stroke-width="0.5"/><text x="140" y="210" font-family="system-ui, -apple-system, sans-serif" font-size="10" font-weight="400" fill="#8B4513" text-anchor="middle" letter-spacing="1.5">EST. 2025</text><defs><path id="topCurve" d="M 50 140 A 90 90 0 0 1 230 140"/></defs><text font-family="system-ui, -apple-system, sans-serif" font-size="11" font-weight="500" fill="#8B4513" letter-spacing="3"><textPath href="#topCurve" startOffset="50%" text-anchor="middle">PREMIUM COFFEE</textPath></text><defs><path id="bottomCurve" d="M 230 140 A 90 90 0 0 1 50 140"/></defs><text font-family="system-ui, -apple-system, sans-serif" font-size="11" font-weight="500" fill="#8B4513" letter-spacing="2"><textPath href="#bottomCurve" startOffset="50%" text-anchor="middle">LOCAL · MOORABBIN</textPath></text></svg>